<mxfile host="app.diagrams.net" modified="2024-04-03T19:46:33.146Z" agent="Mozilla/5.0 (Windows NT 10.0; Win64; x64) AppleWebKit/537.36 (KHTML, like Gecko) Chrome/123.0.0.0 Safari/537.36" etag="t9SudirXc9WzvnGoGyX7" version="24.2.1" type="device">
  <diagram name="Страница — 1" id="I4QVaLzuLUDHBKvf0iji">
    <mxGraphModel dx="2876" dy="2235" grid="0" gridSize="10" guides="1" tooltips="1" connect="1" arrows="1" fold="1" page="1" pageScale="1" pageWidth="827" pageHeight="1169" math="0" shadow="0">
      <root>
        <mxCell id="0" />
        <mxCell id="1" parent="0" />
        <mxCell id="zgN5CGzXPvF6pOlAvZ4N-1" value="Начало" style="ellipse;whiteSpace=wrap;html=1;" vertex="1" parent="1">
          <mxGeometry x="360" width="120" height="80" as="geometry" />
        </mxCell>
        <mxCell id="zgN5CGzXPvF6pOlAvZ4N-2" value="Запуск приложения &quot;ServiTech&quot;" style="rounded=1;whiteSpace=wrap;html=1;" vertex="1" parent="1">
          <mxGeometry x="360" y="120" width="120" height="60" as="geometry" />
        </mxCell>
        <mxCell id="zgN5CGzXPvF6pOlAvZ4N-4" value="Авторизоваться?" style="rhombus;whiteSpace=wrap;html=1;" vertex="1" parent="1">
          <mxGeometry x="360" y="220" width="120" height="80" as="geometry" />
        </mxCell>
        <mxCell id="zgN5CGzXPvF6pOlAvZ4N-6" value="Ввод логина и пароля" style="shape=parallelogram;perimeter=parallelogramPerimeter;whiteSpace=wrap;html=1;fixedSize=1;" vertex="1" parent="1">
          <mxGeometry x="360" y="340" width="120" height="60" as="geometry" />
        </mxCell>
        <mxCell id="zgN5CGzXPvF6pOlAvZ4N-7" value="Администратор?" style="rhombus;whiteSpace=wrap;html=1;" vertex="1" parent="1">
          <mxGeometry x="360" y="440" width="120" height="80" as="geometry" />
        </mxCell>
        <mxCell id="zgN5CGzXPvF6pOlAvZ4N-8" value="Возможности пользователя" style="shape=process;whiteSpace=wrap;html=1;backgroundOutline=1;" vertex="1" parent="1">
          <mxGeometry x="200" y="560" width="120" height="60" as="geometry" />
        </mxCell>
        <mxCell id="zgN5CGzXPvF6pOlAvZ4N-9" value="Открытие админ-панели" style="shape=process;whiteSpace=wrap;html=1;backgroundOutline=1;" vertex="1" parent="1">
          <mxGeometry x="520" y="560" width="120" height="60" as="geometry" />
        </mxCell>
        <mxCell id="zgN5CGzXPvF6pOlAvZ4N-10" value="Возможности администратора" style="shape=process;whiteSpace=wrap;html=1;backgroundOutline=1;" vertex="1" parent="1">
          <mxGeometry x="520" y="660" width="120" height="60" as="geometry" />
        </mxCell>
        <mxCell id="zgN5CGzXPvF6pOlAvZ4N-11" value="Отправка&amp;nbsp;&lt;div&gt;отчета в бухгалтерию&lt;/div&gt;" style="shape=parallelogram;perimeter=parallelogramPerimeter;whiteSpace=wrap;html=1;fixedSize=1;" vertex="1" parent="1">
          <mxGeometry x="520" y="760" width="120" height="60" as="geometry" />
        </mxCell>
        <mxCell id="zgN5CGzXPvF6pOlAvZ4N-12" value="Конец" style="ellipse;whiteSpace=wrap;html=1;" vertex="1" parent="1">
          <mxGeometry x="360" y="900" width="120" height="80" as="geometry" />
        </mxCell>
        <mxCell id="zgN5CGzXPvF6pOlAvZ4N-13" value="" style="endArrow=classic;html=1;rounded=0;exitX=0.5;exitY=1;exitDx=0;exitDy=0;entryX=0.5;entryY=0;entryDx=0;entryDy=0;" edge="1" parent="1" source="zgN5CGzXPvF6pOlAvZ4N-1" target="zgN5CGzXPvF6pOlAvZ4N-2">
          <mxGeometry width="50" height="50" relative="1" as="geometry">
            <mxPoint x="270" y="170" as="sourcePoint" />
            <mxPoint x="320" y="120" as="targetPoint" />
          </mxGeometry>
        </mxCell>
        <mxCell id="zgN5CGzXPvF6pOlAvZ4N-14" value="" style="endArrow=classic;html=1;rounded=0;exitX=0.5;exitY=1;exitDx=0;exitDy=0;entryX=0.5;entryY=0;entryDx=0;entryDy=0;" edge="1" parent="1">
          <mxGeometry width="50" height="50" relative="1" as="geometry">
            <mxPoint x="419.5" y="180" as="sourcePoint" />
            <mxPoint x="419.5" y="220" as="targetPoint" />
          </mxGeometry>
        </mxCell>
        <mxCell id="zgN5CGzXPvF6pOlAvZ4N-15" value="" style="endArrow=classic;html=1;rounded=0;entryX=0.5;entryY=0;entryDx=0;entryDy=0;" edge="1" parent="1">
          <mxGeometry width="50" height="50" relative="1" as="geometry">
            <mxPoint x="420" y="310" as="sourcePoint" />
            <mxPoint x="419.5" y="340" as="targetPoint" />
          </mxGeometry>
        </mxCell>
        <mxCell id="zgN5CGzXPvF6pOlAvZ4N-17" value="" style="endArrow=classic;html=1;rounded=0;exitX=0.5;exitY=1;exitDx=0;exitDy=0;entryX=0.5;entryY=0;entryDx=0;entryDy=0;" edge="1" parent="1">
          <mxGeometry width="50" height="50" relative="1" as="geometry">
            <mxPoint x="419.5" y="400" as="sourcePoint" />
            <mxPoint x="419.5" y="440" as="targetPoint" />
          </mxGeometry>
        </mxCell>
        <mxCell id="zgN5CGzXPvF6pOlAvZ4N-21" value="" style="endArrow=classic;html=1;rounded=0;entryX=0.5;entryY=0;entryDx=0;entryDy=0;" edge="1" parent="1" target="zgN5CGzXPvF6pOlAvZ4N-8">
          <mxGeometry width="50" height="50" relative="1" as="geometry">
            <mxPoint x="260" y="480" as="sourcePoint" />
            <mxPoint x="270" y="490" as="targetPoint" />
          </mxGeometry>
        </mxCell>
        <mxCell id="zgN5CGzXPvF6pOlAvZ4N-22" value="" style="endArrow=none;html=1;rounded=0;entryX=0;entryY=0.5;entryDx=0;entryDy=0;" edge="1" parent="1" target="zgN5CGzXPvF6pOlAvZ4N-7">
          <mxGeometry width="50" height="50" relative="1" as="geometry">
            <mxPoint x="260" y="480" as="sourcePoint" />
            <mxPoint x="440" y="560" as="targetPoint" />
          </mxGeometry>
        </mxCell>
        <mxCell id="zgN5CGzXPvF6pOlAvZ4N-24" value="" style="endArrow=none;html=1;rounded=0;entryX=0;entryY=0.5;entryDx=0;entryDy=0;" edge="1" parent="1">
          <mxGeometry width="50" height="50" relative="1" as="geometry">
            <mxPoint x="480" y="479.5" as="sourcePoint" />
            <mxPoint x="580" y="479.5" as="targetPoint" />
          </mxGeometry>
        </mxCell>
        <mxCell id="zgN5CGzXPvF6pOlAvZ4N-25" value="" style="endArrow=classic;html=1;rounded=0;entryX=0.5;entryY=0;entryDx=0;entryDy=0;" edge="1" parent="1">
          <mxGeometry width="50" height="50" relative="1" as="geometry">
            <mxPoint x="579.5" y="480" as="sourcePoint" />
            <mxPoint x="579.5" y="560" as="targetPoint" />
          </mxGeometry>
        </mxCell>
        <mxCell id="zgN5CGzXPvF6pOlAvZ4N-26" value="" style="endArrow=classic;html=1;rounded=0;exitX=0.5;exitY=1;exitDx=0;exitDy=0;entryX=0.5;entryY=0;entryDx=0;entryDy=0;" edge="1" parent="1">
          <mxGeometry width="50" height="50" relative="1" as="geometry">
            <mxPoint x="579.5" y="620" as="sourcePoint" />
            <mxPoint x="579.5" y="660" as="targetPoint" />
          </mxGeometry>
        </mxCell>
        <mxCell id="zgN5CGzXPvF6pOlAvZ4N-27" value="" style="endArrow=classic;html=1;rounded=0;exitX=0.5;exitY=1;exitDx=0;exitDy=0;entryX=0.5;entryY=0;entryDx=0;entryDy=0;" edge="1" parent="1">
          <mxGeometry width="50" height="50" relative="1" as="geometry">
            <mxPoint x="579.5" y="720" as="sourcePoint" />
            <mxPoint x="579.5" y="760" as="targetPoint" />
          </mxGeometry>
        </mxCell>
        <mxCell id="zgN5CGzXPvF6pOlAvZ4N-28" value="" style="endArrow=none;html=1;rounded=0;entryX=0.5;entryY=1;entryDx=0;entryDy=0;" edge="1" parent="1" target="zgN5CGzXPvF6pOlAvZ4N-8">
          <mxGeometry width="50" height="50" relative="1" as="geometry">
            <mxPoint x="260" y="780" as="sourcePoint" />
            <mxPoint x="280" y="680" as="targetPoint" />
          </mxGeometry>
        </mxCell>
        <mxCell id="zgN5CGzXPvF6pOlAvZ4N-29" value="" style="endArrow=none;html=1;rounded=0;" edge="1" parent="1">
          <mxGeometry width="50" height="50" relative="1" as="geometry">
            <mxPoint x="579.5" y="860" as="sourcePoint" />
            <mxPoint x="579.5" y="820" as="targetPoint" />
          </mxGeometry>
        </mxCell>
        <mxCell id="zgN5CGzXPvF6pOlAvZ4N-31" value="" style="endArrow=none;html=1;rounded=0;" edge="1" parent="1">
          <mxGeometry width="50" height="50" relative="1" as="geometry">
            <mxPoint x="420" y="860" as="sourcePoint" />
            <mxPoint x="580" y="860" as="targetPoint" />
          </mxGeometry>
        </mxCell>
        <mxCell id="zgN5CGzXPvF6pOlAvZ4N-32" value="" style="endArrow=none;html=1;rounded=0;" edge="1" parent="1">
          <mxGeometry width="50" height="50" relative="1" as="geometry">
            <mxPoint x="260" y="780" as="sourcePoint" />
            <mxPoint x="420" y="780" as="targetPoint" />
          </mxGeometry>
        </mxCell>
        <mxCell id="zgN5CGzXPvF6pOlAvZ4N-33" value="" style="endArrow=classic;html=1;rounded=0;entryX=0.5;entryY=0;entryDx=0;entryDy=0;" edge="1" parent="1" target="zgN5CGzXPvF6pOlAvZ4N-12">
          <mxGeometry width="50" height="50" relative="1" as="geometry">
            <mxPoint x="420" y="780" as="sourcePoint" />
            <mxPoint x="340" y="870" as="targetPoint" />
          </mxGeometry>
        </mxCell>
        <mxCell id="zgN5CGzXPvF6pOlAvZ4N-34" value="" style="shape=curlyBracket;whiteSpace=wrap;html=1;rounded=1;flipH=1;labelPosition=right;verticalLabelPosition=middle;align=left;verticalAlign=middle;rotation=-180;" vertex="1" parent="1">
          <mxGeometry x="660" y="561.25" width="20" height="258.75" as="geometry" />
        </mxCell>
        <mxCell id="zgN5CGzXPvF6pOlAvZ4N-35" value="Просмотр списка пользователей" style="text;html=1;align=center;verticalAlign=middle;whiteSpace=wrap;rounded=0;" vertex="1" parent="1">
          <mxGeometry x="680" y="561.25" width="120" height="30" as="geometry" />
        </mxCell>
        <mxCell id="zgN5CGzXPvF6pOlAvZ4N-36" value="Просмотр списка заявок&lt;span style=&quot;color: rgba(0, 0, 0, 0); font-family: monospace; font-size: 0px; text-align: start; text-wrap: nowrap;&quot;&gt;%3CmxGraphModel%3E%3Croot%3E%3CmxCell%20id%3D%220%22%2F%3E%3CmxCell%20id%3D%221%22%20parent%3D%220%22%2F%3E%3CmxCell%20id%3D%222%22%20value%3D%22%D0%9F%D1%80%D0%BE%D1%81%D0%BC%D0%BE%D1%82%D1%80%20%D1%81%D0%BF%D0%B8%D1%81%D0%BA%D0%B0%20%D0%BF%D0%BE%D0%BB%D1%8C%D0%B7%D0%BE%D0%B2%D0%B0%D1%82%D0%B5%D0%BB%D0%B5%D0%B9%22%20style%3D%22text%3Bhtml%3D1%3Balign%3Dcenter%3BverticalAlign%3Dmiddle%3BwhiteSpace%3Dwrap%3Brounded%3D0%3B%22%20vertex%3D%221%22%20parent%3D%221%22%3E%3CmxGeometry%20x%3D%22680%22%20y%3D%22620%22%20width%3D%22120%22%20height%3D%2230%22%20as%3D%22geometry%22%2F%3E%3C%2FmxCell%3E%3C%2Froot%3E%3C%2FmxGraphModel%3E&lt;/span&gt;" style="text;html=1;align=center;verticalAlign=middle;whiteSpace=wrap;rounded=0;" vertex="1" parent="1">
          <mxGeometry x="680" y="600" width="120" height="30" as="geometry" />
        </mxCell>
        <mxCell id="zgN5CGzXPvF6pOlAvZ4N-37" value="Изменение ролей пользователей" style="text;html=1;align=center;verticalAlign=middle;whiteSpace=wrap;rounded=0;" vertex="1" parent="1">
          <mxGeometry x="680" y="640" width="120" height="30" as="geometry" />
        </mxCell>
        <mxCell id="zgN5CGzXPvF6pOlAvZ4N-38" value="Изменение статуса и цены заявки" style="text;html=1;align=center;verticalAlign=middle;whiteSpace=wrap;rounded=0;" vertex="1" parent="1">
          <mxGeometry x="680" y="680" width="120" height="30" as="geometry" />
        </mxCell>
        <mxCell id="zgN5CGzXPvF6pOlAvZ4N-39" value="Изменение списка потдерживаемых услуг" style="text;html=1;align=center;verticalAlign=middle;whiteSpace=wrap;rounded=0;" vertex="1" parent="1">
          <mxGeometry x="680" y="730" width="120" height="30" as="geometry" />
        </mxCell>
        <mxCell id="zgN5CGzXPvF6pOlAvZ4N-40" value="" style="shape=curlyBracket;whiteSpace=wrap;html=1;rounded=1;flipH=1;labelPosition=right;verticalLabelPosition=middle;align=left;verticalAlign=middle;" vertex="1" parent="1">
          <mxGeometry x="160" y="530" width="20" height="120" as="geometry" />
        </mxCell>
        <mxCell id="zgN5CGzXPvF6pOlAvZ4N-41" value="Просмотр списка потдерживаемых услуг" style="text;html=1;align=center;verticalAlign=middle;whiteSpace=wrap;rounded=0;" vertex="1" parent="1">
          <mxGeometry x="50" y="530" width="120" height="30" as="geometry" />
        </mxCell>
        <mxCell id="zgN5CGzXPvF6pOlAvZ4N-42" value="Отправка заявок" style="text;html=1;align=center;verticalAlign=middle;whiteSpace=wrap;rounded=0;" vertex="1" parent="1">
          <mxGeometry x="50" y="570" width="120" height="30" as="geometry" />
        </mxCell>
        <mxCell id="zgN5CGzXPvF6pOlAvZ4N-44" value="Просмотр информации о организации" style="text;html=1;align=center;verticalAlign=middle;whiteSpace=wrap;rounded=0;" vertex="1" parent="1">
          <mxGeometry x="50" y="610" width="120" height="30" as="geometry" />
        </mxCell>
        <mxCell id="zgN5CGzXPvF6pOlAvZ4N-45" value="Изменение иформации о организации" style="text;html=1;align=center;verticalAlign=middle;whiteSpace=wrap;rounded=0;" vertex="1" parent="1">
          <mxGeometry x="680" y="780" width="120" height="30" as="geometry" />
        </mxCell>
        <mxCell id="zgN5CGzXPvF6pOlAvZ4N-46" value="" style="endArrow=none;html=1;rounded=0;" edge="1" parent="1">
          <mxGeometry width="50" height="50" relative="1" as="geometry">
            <mxPoint x="480" y="260" as="sourcePoint" />
            <mxPoint x="540" y="260" as="targetPoint" />
          </mxGeometry>
        </mxCell>
        <mxCell id="zgN5CGzXPvF6pOlAvZ4N-47" value="" style="endArrow=none;html=1;rounded=0;" edge="1" parent="1">
          <mxGeometry width="50" height="50" relative="1" as="geometry">
            <mxPoint x="540" y="260" as="sourcePoint" />
            <mxPoint x="540" y="310" as="targetPoint" />
          </mxGeometry>
        </mxCell>
        <mxCell id="zgN5CGzXPvF6pOlAvZ4N-49" value="" style="endArrow=none;html=1;rounded=0;" edge="1" parent="1">
          <mxGeometry width="50" height="50" relative="1" as="geometry">
            <mxPoint x="540" y="310" as="sourcePoint" />
            <mxPoint x="420" y="310" as="targetPoint" />
          </mxGeometry>
        </mxCell>
        <mxCell id="zgN5CGzXPvF6pOlAvZ4N-50" value="" style="endArrow=none;html=1;rounded=0;" edge="1" parent="1">
          <mxGeometry width="50" height="50" relative="1" as="geometry">
            <mxPoint x="300" y="259.5" as="sourcePoint" />
            <mxPoint x="360" y="259.5" as="targetPoint" />
          </mxGeometry>
        </mxCell>
        <mxCell id="zgN5CGzXPvF6pOlAvZ4N-51" value="" style="endArrow=none;html=1;rounded=0;" edge="1" parent="1">
          <mxGeometry width="50" height="50" relative="1" as="geometry">
            <mxPoint x="300" y="200" as="sourcePoint" />
            <mxPoint x="300" y="260" as="targetPoint" />
          </mxGeometry>
        </mxCell>
        <mxCell id="zgN5CGzXPvF6pOlAvZ4N-52" value="" style="endArrow=classic;html=1;rounded=0;" edge="1" parent="1">
          <mxGeometry width="50" height="50" relative="1" as="geometry">
            <mxPoint x="300" y="200" as="sourcePoint" />
            <mxPoint x="420" y="200" as="targetPoint" />
          </mxGeometry>
        </mxCell>
        <mxCell id="zgN5CGzXPvF6pOlAvZ4N-53" value="нет" style="text;html=1;align=center;verticalAlign=middle;whiteSpace=wrap;rounded=0;" vertex="1" parent="1">
          <mxGeometry x="300" y="230" width="60" height="30" as="geometry" />
        </mxCell>
        <mxCell id="zgN5CGzXPvF6pOlAvZ4N-54" value="да" style="text;html=1;align=center;verticalAlign=middle;whiteSpace=wrap;rounded=0;" vertex="1" parent="1">
          <mxGeometry x="480" y="230" width="60" height="30" as="geometry" />
        </mxCell>
        <mxCell id="zgN5CGzXPvF6pOlAvZ4N-55" value="нет" style="text;html=1;align=center;verticalAlign=middle;whiteSpace=wrap;rounded=0;" vertex="1" parent="1">
          <mxGeometry x="280" y="450" width="60" height="30" as="geometry" />
        </mxCell>
        <mxCell id="zgN5CGzXPvF6pOlAvZ4N-56" value="да" style="text;html=1;align=center;verticalAlign=middle;whiteSpace=wrap;rounded=0;" vertex="1" parent="1">
          <mxGeometry x="500" y="450" width="60" height="30" as="geometry" />
        </mxCell>
        <mxCell id="zgN5CGzXPvF6pOlAvZ4N-57" value="" style="ellipse;whiteSpace=wrap;html=1;" vertex="1" parent="1">
          <mxGeometry x="250" y="-287" width="120" height="80" as="geometry" />
        </mxCell>
        <mxCell id="zgN5CGzXPvF6pOlAvZ4N-58" value="" style="swimlane;startSize=0;" vertex="1" parent="1">
          <mxGeometry x="-400" y="357" width="200" height="200" as="geometry" />
        </mxCell>
      </root>
    </mxGraphModel>
  </diagram>
</mxfile>
